0
SECTION
2
HEADER
9
$INSUNITS
70
4
0
ENDSEC
0
SECTION
2
TABLES
0
TABLE
2
LTYPE
0
LTYPE
72
65
70
64
2
CONTINUOUS
3
______
73
0
40
0
0
ENDTAB
0
TABLE
2
LAYER
0
ENDTAB
0
ENDSEC
0
SECTION
2
ENTITIES
0
LINE
8
0
10
91
20
-109
11
127
21
-109
0
LINE
8
0
10
91
20
-109
11
91
21
-23
0
LINE
8
0
10
91
20
-23
11
127
21
-23
0
LINE
8
0
10
127
20
-109
11
127
21
-104
0
LINE
8
0
10
127
20
-104
11
145
21
-104
0
LINE
8
0
10
145
20
-104
11
145
21
-98
0
LINE
8
0
10
145
20
-18
11
127
21
-18
0
LINE
8
0
10
127
20
-18
11
127
21
-23
0
LINE
8
0
10
145
20
-98
11
163
21
-98
0
LINE
8
0
10
163
20
-18
11
163
21
-12
0
LINE
8
0
10
163
20
-12
11
145
21
-12
0
LINE
8
0
10
145
20
-12
11
145
21
-18
0
LINE
8
0
10
163
20
-104
11
181
21
-104
0
LINE
8
0
10
163
20
-98
11
163
21
-104
0
LINE
8
0
10
181
20
-23
11
181
21
-18
0
LINE
8
0
10
181
20
-18
11
163
21
-18
0
LINE
8
0
10
181
20
-109
11
199
21
-109
0
LINE
8
0
10
199
20
-109
11
199
21
-23
0
LINE
8
0
10
181
20
-104
11
181
21
-109
0
LINE
8
0
10
199
20
-23
11
181
21
-23
0
LINE
8
0
10
127
20
-134
11
181
21
-134
0
LINE
8
0
10
127
20
-116
11
181
21
-116
0
LINE
8
0
10
127
20
-116
11
127
21
-134
0
LINE
8
0
10
181
20
-134
11
181
21
-116
0
LINE
8
0
10
182.5738966
20
-135.3004362
11
200.3004362
21
-138.4261034
0
LINE
8
0
10
200.3004362
20
-138.4261034
11
203.4261034
21
-120.6995638
0
LINE
8
0
10
203.4261034
20
-120.6995638
11
185.6995638
21
-117.5738966
0
LINE
8
0
10
185.6995638
20
-117.5738966
11
182.5738966
21
-135.3004362
0
LINE
8
0
10
201.4645851
20
-140.3790523
11
218.3790523
21
-146.5354149
0
LINE
8
0
10
218.3790523
20
-146.5354149
11
224.5354149
21
-129.6209477
0
LINE
8
0
10
224.5354149
20
-129.6209477
11
207.6209477
21
-123.4645851
0
LINE
8
0
10
207.6209477
20
-123.4645851
11
201.4645851
21
-140.3790523
0
ENDSEC
0
EOF