0
SECTION
2
HEADER
9
$INSUNITS
70
4
0
ENDSEC
0
SECTION
2
TABLES
0
TABLE
2
LTYPE
0
LTYPE
72
65
70
64
2
CONTINUOUS
3
______
73
0
40
0
0
ENDTAB
0
TABLE
2
LAYER
0
ENDTAB
0
ENDSEC
0
SECTION
2
ENTITIES
0
LINE
8
0
10
91.25
20
-108.25
11
108.75
21
-108.25
0
LINE
8
0
10
108.75
20
-108.25
11
108.75
21
-91.75
0
LINE
8
0
10
108.75
20
-91.75
11
91.25
21
-91.75
0
LINE
8
0
10
91.25
20
-91.75
11
91.25
21
-108.25
0
LINE
8
0
10
91.25
20
-91.25
11
108.75
21
-91.25
0
LINE
8
0
10
108.75
20
-91.25
11
108.75
21
-74.75
0
LINE
8
0
10
108.75
20
-74.75
11
91.25
21
-74.75
0
LINE
8
0
10
91.25
20
-74.75
11
91.25
21
-91.25
0
LINE
8
0
10
91.25
20
-74.25
11
108.75
21
-74.25
0
LINE
8
0
10
108.75
20
-74.25
11
108.75
21
-57.75
0
LINE
8
0
10
108.75
20
-57.75
11
91.25
21
-57.75
0
LINE
8
0
10
91.25
20
-57.75
11
91.25
21
-74.25
0
LINE
8
0
10
91.25
20
-57.25
11
108.75
21
-57.25
0
LINE
8
0
10
108.75
20
-57.25
11
108.75
21
-40.75
0
LINE
8
0
10
108.75
20
-40.75
11
91.25
21
-40.75
0
LINE
8
0
10
91.25
20
-40.75
11
91.25
21
-57.25
0
LINE
8
0
10
91.25
20
-40.25
11
108.75
21
-40.25
0
LINE
8
0
10
108.75
20
-40.25
11
108.75
21
-23.75
0
LINE
8
0
10
108.75
20
-23.75
11
91.25
21
-23.75
0
LINE
8
0
10
91.25
20
-23.75
11
91.25
21
-40.25
0
LINE
8
0
10
109.25
20
-108.25
11
126.75
21
-108.25
0
LINE
8
0
10
126.75
20
-108.25
11
126.75
21
-91.75
0
LINE
8
0
10
126.75
20
-91.75
11
109.25
21
-91.75
0
LINE
8
0
10
109.25
20
-91.75
11
109.25
21
-108.25
0
LINE
8
0
10
109.25
20
-91.25
11
126.75
21
-91.25
0
LINE
8
0
10
126.75
20
-91.25
11
126.75
21
-74.75
0
LINE
8
0
10
126.75
20
-74.75
11
109.25
21
-74.75
0
LINE
8
0
10
109.25
20
-74.75
11
109.25
21
-91.25
0
LINE
8
0
10
109.25
20
-74.25
11
126.75
21
-74.25
0
LINE
8
0
10
126.75
20
-74.25
11
126.75
21
-57.75
0
LINE
8
0
10
126.75
20
-57.75
11
109.25
21
-57.75
0
LINE
8
0
10
109.25
20
-57.75
11
109.25
21
-74.25
0
LINE
8
0
10
109.25
20
-57.25
11
126.75
21
-57.25
0
LINE
8
0
10
126.75
20
-57.25
11
126.75
21
-40.75
0
LINE
8
0
10
126.75
20
-40.75
11
109.25
21
-40.75
0
LINE
8
0
10
109.25
20
-40.75
11
109.25
21
-57.25
0
LINE
8
0
10
109.25
20
-40.25
11
126.75
21
-40.25
0
LINE
8
0
10
126.75
20
-40.25
11
126.75
21
-23.75
0
LINE
8
0
10
126.75
20
-23.75
11
109.25
21
-23.75
0
LINE
8
0
10
109.25
20
-23.75
11
109.25
21
-40.25
0
LINE
8
0
10
127.25
20
-103.25
11
144.75
21
-103.25
0
LINE
8
0
10
144.75
20
-103.25
11
144.75
21
-86.75
0
LINE
8
0
10
144.75
20
-86.75
11
127.25
21
-86.75
0
LINE
8
0
10
127.25
20
-86.75
11
127.25
21
-103.25
0
LINE
8
0
10
127.25
20
-86.25
11
144.75
21
-86.25
0
LINE
8
0
10
144.75
20
-86.25
11
144.75
21
-69.75
0
LINE
8
0
10
144.75
20
-69.75
11
127.25
21
-69.75
0
LINE
8
0
10
127.25
20
-69.75
11
127.25
21
-86.25
0
LINE
8
0
10
127.25
20
-69.25
11
144.75
21
-69.25
0
LINE
8
0
10
144.75
20
-69.25
11
144.75
21
-52.75
0
LINE
8
0
10
144.75
20
-52.75
11
127.25
21
-52.75
0
LINE
8
0
10
127.25
20
-52.75
11
127.25
21
-69.25
0
LINE
8
0
10
127.25
20
-52.25
11
144.75
21
-52.25
0
LINE
8
0
10
144.75
20
-52.25
11
144.75
21
-35.75
0
LINE
8
0
10
144.75
20
-35.75
11
127.25
21
-35.75
0
LINE
8
0
10
127.25
20
-35.75
11
127.25
21
-52.25
0
LINE
8
0
10
127.25
20
-35.25
11
144.75
21
-35.25
0
LINE
8
0
10
144.75
20
-35.25
11
144.75
21
-18.75
0
LINE
8
0
10
144.75
20
-18.75
11
127.25
21
-18.75
0
LINE
8
0
10
127.25
20
-18.75
11
127.25
21
-35.25
0
LINE
8
0
10
145.25
20
-97.25
11
162.75
21
-97.25
0
LINE
8
0
10
162.75
20
-97.25
11
162.75
21
-80.75
0
LINE
8
0
10
162.75
20
-80.75
11
145.25
21
-80.75
0
LINE
8
0
10
145.25
20
-80.75
11
145.25
21
-97.25
0
LINE
8
0
10
145.25
20
-80.25
11
162.75
21
-80.25
0
LINE
8
0
10
162.75
20
-80.25
11
162.75
21
-63.75
0
LINE
8
0
10
162.75
20
-63.75
11
145.25
21
-63.75
0
LINE
8
0
10
145.25
20
-63.75
11
145.25
21
-80.25
0
LINE
8
0
10
145.25
20
-63.25
11
162.75
21
-63.25
0
LINE
8
0
10
162.75
20
-63.25
11
162.75
21
-46.75
0
LINE
8
0
10
162.75
20
-46.75
11
145.25
21
-46.75
0
LINE
8
0
10
145.25
20
-46.75
11
145.25
21
-63.25
0
LINE
8
0
10
145.25
20
-46.25
11
162.75
21
-46.25
0
LINE
8
0
10
162.75
20
-46.25
11
162.75
21
-29.75
0
LINE
8
0
10
162.75
20
-29.75
11
145.25
21
-29.75
0
LINE
8
0
10
145.25
20
-29.75
11
145.25
21
-46.25
0
LINE
8
0
10
145.25
20
-29.25
11
162.75
21
-29.25
0
LINE
8
0
10
162.75
20
-29.25
11
162.75
21
-12.75
0
LINE
8
0
10
162.75
20
-12.75
11
145.25
21
-12.75
0
LINE
8
0
10
145.25
20
-12.75
11
145.25
21
-29.25
0
LINE
8
0
10
163.25
20
-103.25
11
180.75
21
-103.25
0
LINE
8
0
10
180.75
20
-103.25
11
180.75
21
-86.75
0
LINE
8
0
10
180.75
20
-86.75
11
163.25
21
-86.75
0
LINE
8
0
10
163.25
20
-86.75
11
163.25
21
-103.25
0
LINE
8
0
10
163.25
20
-86.25
11
180.75
21
-86.25
0
LINE
8
0
10
180.75
20
-86.25
11
180.75
21
-69.75
0
LINE
8
0
10
180.75
20
-69.75
11
163.25
21
-69.75
0
LINE
8
0
10
163.25
20
-69.75
11
163.25
21
-86.25
0
LINE
8
0
10
163.25
20
-69.25
11
180.75
21
-69.25
0
LINE
8
0
10
180.75
20
-69.25
11
180.75
21
-52.75
0
LINE
8
0
10
180.75
20
-52.75
11
163.25
21
-52.75
0
LINE
8
0
10
163.25
20
-52.75
11
163.25
21
-69.25
0
LINE
8
0
10
163.25
20
-52.25
11
180.75
21
-52.25
0
LINE
8
0
10
180.75
20
-52.25
11
180.75
21
-35.75
0
LINE
8
0
10
180.75
20
-35.75
11
163.25
21
-35.75
0
LINE
8
0
10
163.25
20
-35.75
11
163.25
21
-52.25
0
LINE
8
0
10
163.25
20
-35.25
11
180.75
21
-35.25
0
LINE
8
0
10
180.75
20
-35.25
11
180.75
21
-18.75
0
LINE
8
0
10
180.75
20
-18.75
11
163.25
21
-18.75
0
LINE
8
0
10
163.25
20
-18.75
11
163.25
21
-35.25
0
LINE
8
0
10
181.25
20
-108.25
11
198.75
21
-108.25
0
LINE
8
0
10
198.75
20
-108.25
11
198.75
21
-91.75
0
LINE
8
0
10
198.75
20
-91.75
11
181.25
21
-91.75
0
LINE
8
0
10
181.25
20
-91.75
11
181.25
21
-108.25
0
LINE
8
0
10
181.25
20
-91.25
11
198.75
21
-91.25
0
LINE
8
0
10
198.75
20
-91.25
11
198.75
21
-74.75
0
LINE
8
0
10
198.75
20
-74.75
11
181.25
21
-74.75
0
LINE
8
0
10
181.25
20
-74.75
11
181.25
21
-91.25
0
LINE
8
0
10
181.25
20
-74.25
11
198.75
21
-74.25
0
LINE
8
0
10
198.75
20
-74.25
11
198.75
21
-57.75
0
LINE
8
0
10
198.75
20
-57.75
11
181.25
21
-57.75
0
LINE
8
0
10
181.25
20
-57.75
11
181.25
21
-74.25
0
LINE
8
0
10
181.25
20
-57.25
11
198.75
21
-57.25
0
LINE
8
0
10
198.75
20
-57.25
11
198.75
21
-40.75
0
LINE
8
0
10
198.75
20
-40.75
11
181.25
21
-40.75
0
LINE
8
0
10
181.25
20
-40.75
11
181.25
21
-57.25
0
LINE
8
0
10
181.25
20
-40.25
11
198.75
21
-40.25
0
LINE
8
0
10
198.75
20
-40.25
11
198.75
21
-23.75
0
LINE
8
0
10
198.75
20
-23.75
11
181.25
21
-23.75
0
LINE
8
0
10
181.25
20
-23.75
11
181.25
21
-40.25
0
LINE
8
0
10
127.25
20
-133.25
11
144.75
21
-133.25
0
LINE
8
0
10
144.75
20
-133.25
11
144.75
21
-116.75
0
LINE
8
0
10
144.75
20
-116.75
11
127.25
21
-116.75
0
LINE
8
0
10
127.25
20
-116.75
11
127.25
21
-133.25
0
LINE
8
0
10
145.25
20
-133.25
11
162.75
21
-133.25
0
LINE
8
0
10
162.75
20
-133.25
11
162.75
21
-116.75
0
LINE
8
0
10
162.75
20
-116.75
11
145.25
21
-116.75
0
LINE
8
0
10
145.25
20
-116.75
11
145.25
21
-133.25
0
LINE
8
0
10
163.25
20
-133.25
11
180.75
21
-133.25
0
LINE
8
0
10
180.75
20
-133.25
11
180.75
21
-116.75
0
LINE
8
0
10
180.75
20
-116.75
11
163.25
21
-116.75
0
LINE
8
0
10
163.25
20
-116.75
11
163.25
21
-133.25
0
LINE
8
0
10
182.9503347
20
-134.6052424
11
200.1844704
21
-137.6440855
0
LINE
8
0
10
200.1844704
20
-137.6440855
11
203.0496653
21
-121.3947576
0
LINE
8
0
10
203.0496653
20
-121.3947576
11
185.8155296
21
-118.3559145
0
LINE
8
0
10
185.8155296
20
-118.3559145
11
182.9503347
21
-134.6052424
0
LINE
8
0
10
201.9560234
20
-139.7597879
11
218.4006442
21
-145.7451404
0
LINE
8
0
10
218.4006442
20
-145.7451404
11
224.0439766
21
-130.2402121
0
LINE
8
0
10
224.0439766
20
-130.2402121
11
207.5993558
21
-124.2548596
0
LINE
8
0
10
207.5993558
20
-124.2548596
11
201.9560234
21
-139.7597879
0
ENDSEC
0
EOF