0
SECTION
2
HEADER
9
$INSUNITS
70
4
0
ENDSEC
0
SECTION
2
TABLES
0
TABLE
2
LTYPE
0
LTYPE
72
65
70
64
2
CONTINUOUS
3
______
73
0
40
0
0
ENDTAB
0
TABLE
2
LAYER
0
ENDTAB
0
ENDSEC
0
SECTION
2
ENTITIES
0
LINE
8
0
10
89
20
-108.5
11
89
21
-23.2414202
0
LINE
8
0
10
90.7248632
20
-21.2604357
11
124.8174885
21
-16.5253488
0
LINE
8
0
10
125.1748073
20
-16.4417309
11
142.6920997
21
-10.6026334
0
LINE
8
0
10
143.3245553
20
-10.5
11
164.7012618
21
-10.5
0
LINE
8
0
10
165.2856988
20
-10.5872969
11
200.7143012
21
-21.4127031
0
LINE
8
0
10
201.2987382
20
-21.5
11
221
21
-21.5
0
LINE
8
0
10
223
20
-23.5
11
223
21
-89.4005438
0
LINE
8
0
10
223.0098671
20
-89.5989654
11
226.8825793
21
-128.4415899
0
LINE
8
0
10
226.7718317
20
-129.3240518
11
220.4294476
21
-146.7496088
0
LINE
8
0
10
217.8660222
20
-147.9449538
11
199.1704418
21
-141.140319
0
LINE
8
0
10
198.9707033
20
-141.0792271
11
180.5350998
21
-136.4780936
0
LINE
8
0
10
180.146878
20
-136.42088
11
161.0480126
21
-135.5023092
0
LINE
8
0
10
160.9519326
20
-135.5
11
126.0244675
21
-135.5
0
LINE
8
0
10
124.4013988
20
-134.6686095
11
107.5986012
21
-111.3313905
0
LINE
8
0
10
105.9755325
20
-110.5
11
91
21
-110.5
0
ARC
8
0
10
91
20
-23.2414202
40
2
50
97.9071641
51
180
0
ARC
8
0
10
124.5423517
20
-14.5443643
40
2
50
277.9071641
51
288.4349506
0
ARC
8
0
10
143.3245553
20
-12.5
40
2
50
90
51
108.4349506
0
ARC
8
0
10
164.7012618
20
-12.5
40
2
50
73.0091791
51
90
0
ARC
8
0
10
201.2987382
20
-19.5
40
2
50
253.0091791
51
270
0
ARC
8
0
10
221
20
-23.5
40
2
50
0
51
90
0
ARC
8
0
10
225
20
-89.4005438
40
2
50
180
51
185.6937269
0
ARC
8
0
10
224.8924465
20
-128.6400116
40
2
50
340.0000019
51
5.6937269
0
ARC
8
0
10
218.5500624
20
-146.0655686
40
2
50
250.0000019
51
340.0000019
0
ARC
8
0
10
198.4864016
20
-143.0197042
40
2
50
70.0000019
51
75.9864769
0
ARC
8
0
10
180.050798
20
-138.4185708
40
2
50
75.9864769
51
87.2464509
0
ARC
8
0
10
160.9519326
20
-137.5
40
2
50
87.2464509
51
90
0
ARC
8
0
10
126.0244675
20
-133.5
40
2
50
215.7538874
51
270
0
ARC
8
0
10
105.9755325
20
-112.5
40
2
50
35.7538874
51
90
0
ARC
8
0
10
91
20
-108.5
40
2
50
180
51
270
0
LINE
8
0
10
91.25
20
-108.25
11
108.75
21
-108.25
0
LINE
8
0
10
108.75
20
-108.25
11
108.75
21
-91.75
0
LINE
8
0
10
108.75
20
-91.75
11
91.25
21
-91.75
0
LINE
8
0
10
91.25
20
-91.75
11
91.25
21
-108.25
0
LINE
8
0
10
91.25
20
-91.25
11
108.75
21
-91.25
0
LINE
8
0
10
108.75
20
-91.25
11
108.75
21
-74.75
0
LINE
8
0
10
108.75
20
-74.75
11
91.25
21
-74.75
0
LINE
8
0
10
91.25
20
-74.75
11
91.25
21
-91.25
0
LINE
8
0
10
91.25
20
-74.25
11
108.75
21
-74.25
0
LINE
8
0
10
108.75
20
-74.25
11
108.75
21
-57.75
0
LINE
8
0
10
108.75
20
-57.75
11
91.25
21
-57.75
0
LINE
8
0
10
91.25
20
-57.75
11
91.25
21
-74.25
0
LINE
8
0
10
91.25
20
-57.25
11
108.75
21
-57.25
0
LINE
8
0
10
108.75
20
-57.25
11
108.75
21
-40.75
0
LINE
8
0
10
108.75
20
-40.75
11
91.25
21
-40.75
0
LINE
8
0
10
91.25
20
-40.75
11
91.25
21
-57.25
0
LINE
8
0
10
91.25
20
-40.25
11
108.75
21
-40.25
0
LINE
8
0
10
108.75
20
-40.25
11
108.75
21
-23.75
0
LINE
8
0
10
108.75
20
-23.75
11
91.25
21
-23.75
0
LINE
8
0
10
91.25
20
-23.75
11
91.25
21
-40.25
0
LINE
8
0
10
109.25
20
-108.25
11
126.75
21
-108.25
0
LINE
8
0
10
126.75
20
-108.25
11
126.75
21
-91.75
0
LINE
8
0
10
126.75
20
-91.75
11
109.25
21
-91.75
0
LINE
8
0
10
109.25
20
-91.75
11
109.25
21
-108.25
0
LINE
8
0
10
109.25
20
-91.25
11
126.75
21
-91.25
0
LINE
8
0
10
126.75
20
-91.25
11
126.75
21
-74.75
0
LINE
8
0
10
126.75
20
-74.75
11
109.25
21
-74.75
0
LINE
8
0
10
109.25
20
-74.75
11
109.25
21
-91.25
0
LINE
8
0
10
109.25
20
-74.25
11
126.75
21
-74.25
0
LINE
8
0
10
126.75
20
-74.25
11
126.75
21
-57.75
0
LINE
8
0
10
126.75
20
-57.75
11
109.25
21
-57.75
0
LINE
8
0
10
109.25
20
-57.75
11
109.25
21
-74.25
0
LINE
8
0
10
109.25
20
-57.25
11
126.75
21
-57.25
0
LINE
8
0
10
126.75
20
-57.25
11
126.75
21
-40.75
0
LINE
8
0
10
126.75
20
-40.75
11
109.25
21
-40.75
0
LINE
8
0
10
109.25
20
-40.75
11
109.25
21
-57.25
0
LINE
8
0
10
109.25
20
-40.25
11
126.75
21
-40.25
0
LINE
8
0
10
126.75
20
-40.25
11
126.75
21
-23.75
0
LINE
8
0
10
126.75
20
-23.75
11
109.25
21
-23.75
0
LINE
8
0
10
109.25
20
-23.75
11
109.25
21
-40.25
0
LINE
8
0
10
127.25
20
-103.25
11
144.75
21
-103.25
0
LINE
8
0
10
144.75
20
-103.25
11
144.75
21
-86.75
0
LINE
8
0
10
144.75
20
-86.75
11
127.25
21
-86.75
0
LINE
8
0
10
127.25
20
-86.75
11
127.25
21
-103.25
0
LINE
8
0
10
127.25
20
-86.25
11
144.75
21
-86.25
0
LINE
8
0
10
144.75
20
-86.25
11
144.75
21
-69.75
0
LINE
8
0
10
144.75
20
-69.75
11
127.25
21
-69.75
0
LINE
8
0
10
127.25
20
-69.75
11
127.25
21
-86.25
0
LINE
8
0
10
127.25
20
-69.25
11
144.75
21
-69.25
0
LINE
8
0
10
144.75
20
-69.25
11
144.75
21
-52.75
0
LINE
8
0
10
144.75
20
-52.75
11
127.25
21
-52.75
0
LINE
8
0
10
127.25
20
-52.75
11
127.25
21
-69.25
0
LINE
8
0
10
127.25
20
-52.25
11
144.75
21
-52.25
0
LINE
8
0
10
144.75
20
-52.25
11
144.75
21
-35.75
0
LINE
8
0
10
144.75
20
-35.75
11
127.25
21
-35.75
0
LINE
8
0
10
127.25
20
-35.75
11
127.25
21
-52.25
0
LINE
8
0
10
127.25
20
-35.25
11
144.75
21
-35.25
0
LINE
8
0
10
144.75
20
-35.25
11
144.75
21
-18.75
0
LINE
8
0
10
144.75
20
-18.75
11
127.25
21
-18.75
0
LINE
8
0
10
127.25
20
-18.75
11
127.25
21
-35.25
0
LINE
8
0
10
145.25
20
-97.25
11
162.75
21
-97.25
0
LINE
8
0
10
162.75
20
-97.25
11
162.75
21
-80.75
0
LINE
8
0
10
162.75
20
-80.75
11
145.25
21
-80.75
0
LINE
8
0
10
145.25
20
-80.75
11
145.25
21
-97.25
0
LINE
8
0
10
145.25
20
-80.25
11
162.75
21
-80.25
0
LINE
8
0
10
162.75
20
-80.25
11
162.75
21
-63.75
0
LINE
8
0
10
162.75
20
-63.75
11
145.25
21
-63.75
0
LINE
8
0
10
145.25
20
-63.75
11
145.25
21
-80.25
0
LINE
8
0
10
145.25
20
-63.25
11
162.75
21
-63.25
0
LINE
8
0
10
162.75
20
-63.25
11
162.75
21
-46.75
0
LINE
8
0
10
162.75
20
-46.75
11
145.25
21
-46.75
0
LINE
8
0
10
145.25
20
-46.75
11
145.25
21
-63.25
0
LINE
8
0
10
145.25
20
-46.25
11
162.75
21
-46.25
0
LINE
8
0
10
162.75
20
-46.25
11
162.75
21
-29.75
0
LINE
8
0
10
162.75
20
-29.75
11
145.25
21
-29.75
0
LINE
8
0
10
145.25
20
-29.75
11
145.25
21
-46.25
0
LINE
8
0
10
145.25
20
-29.25
11
162.75
21
-29.25
0
LINE
8
0
10
162.75
20
-29.25
11
162.75
21
-12.75
0
LINE
8
0
10
162.75
20
-12.75
11
145.25
21
-12.75
0
LINE
8
0
10
145.25
20
-12.75
11
145.25
21
-29.25
0
LINE
8
0
10
163.25
20
-103.25
11
180.75
21
-103.25
0
LINE
8
0
10
180.75
20
-103.25
11
180.75
21
-86.75
0
LINE
8
0
10
180.75
20
-86.75
11
163.25
21
-86.75
0
LINE
8
0
10
163.25
20
-86.75
11
163.25
21
-103.25
0
LINE
8
0
10
163.25
20
-86.25
11
180.75
21
-86.25
0
LINE
8
0
10
180.75
20
-86.25
11
180.75
21
-69.75
0
LINE
8
0
10
180.75
20
-69.75
11
163.25
21
-69.75
0
LINE
8
0
10
163.25
20
-69.75
11
163.25
21
-86.25
0
LINE
8
0
10
163.25
20
-69.25
11
180.75
21
-69.25
0
LINE
8
0
10
180.75
20
-69.25
11
180.75
21
-52.75
0
LINE
8
0
10
180.75
20
-52.75
11
163.25
21
-52.75
0
LINE
8
0
10
163.25
20
-52.75
11
163.25
21
-69.25
0
LINE
8
0
10
163.25
20
-52.25
11
180.75
21
-52.25
0
LINE
8
0
10
180.75
20
-52.25
11
180.75
21
-35.75
0
LINE
8
0
10
180.75
20
-35.75
11
163.25
21
-35.75
0
LINE
8
0
10
163.25
20
-35.75
11
163.25
21
-52.25
0
LINE
8
0
10
163.25
20
-35.25
11
180.75
21
-35.25
0
LINE
8
0
10
180.75
20
-35.25
11
180.75
21
-18.75
0
LINE
8
0
10
180.75
20
-18.75
11
163.25
21
-18.75
0
LINE
8
0
10
163.25
20
-18.75
11
163.25
21
-35.25
0
LINE
8
0
10
181.25
20
-108.25
11
198.75
21
-108.25
0
LINE
8
0
10
198.75
20
-108.25
11
198.75
21
-91.75
0
LINE
8
0
10
198.75
20
-91.75
11
181.25
21
-91.75
0
LINE
8
0
10
181.25
20
-91.75
11
181.25
21
-108.25
0
LINE
8
0
10
181.25
20
-91.25
11
198.75
21
-91.25
0
LINE
8
0
10
198.75
20
-91.25
11
198.75
21
-74.75
0
LINE
8
0
10
198.75
20
-74.75
11
181.25
21
-74.75
0
LINE
8
0
10
181.25
20
-74.75
11
181.25
21
-91.25
0
LINE
8
0
10
181.25
20
-74.25
11
198.75
21
-74.25
0
LINE
8
0
10
198.75
20
-74.25
11
198.75
21
-57.75
0
LINE
8
0
10
198.75
20
-57.75
11
181.25
21
-57.75
0
LINE
8
0
10
181.25
20
-57.75
11
181.25
21
-74.25
0
LINE
8
0
10
181.25
20
-57.25
11
198.75
21
-57.25
0
LINE
8
0
10
198.75
20
-57.25
11
198.75
21
-40.75
0
LINE
8
0
10
198.75
20
-40.75
11
181.25
21
-40.75
0
LINE
8
0
10
181.25
20
-40.75
11
181.25
21
-57.25
0
LINE
8
0
10
181.25
20
-40.25
11
198.75
21
-40.25
0
LINE
8
0
10
198.75
20
-40.25
11
198.75
21
-23.75
0
LINE
8
0
10
198.75
20
-23.75
11
181.25
21
-23.75
0
LINE
8
0
10
181.25
20
-23.75
11
181.25
21
-40.25
0
LINE
8
0
10
127.25
20
-133.25
11
144.75
21
-133.25
0
LINE
8
0
10
144.75
20
-133.25
11
144.75
21
-116.75
0
LINE
8
0
10
144.75
20
-116.75
11
127.25
21
-116.75
0
LINE
8
0
10
127.25
20
-116.75
11
127.25
21
-133.25
0
LINE
8
0
10
145.25
20
-133.25
11
162.75
21
-133.25
0
LINE
8
0
10
162.75
20
-133.25
11
162.75
21
-116.75
0
LINE
8
0
10
162.75
20
-116.75
11
145.25
21
-116.75
0
LINE
8
0
10
145.25
20
-116.75
11
145.25
21
-133.25
0
LINE
8
0
10
163.25
20
-133.25
11
180.75
21
-133.25
0
LINE
8
0
10
180.75
20
-133.25
11
180.75
21
-116.75
0
LINE
8
0
10
180.75
20
-116.75
11
163.25
21
-116.75
0
LINE
8
0
10
163.25
20
-116.75
11
163.25
21
-133.25
0
LINE
8
0
10
182.9503347
20
-134.6052424
11
200.1844704
21
-137.6440855
0
LINE
8
0
10
200.1844704
20
-137.6440855
11
203.0496653
21
-121.3947576
0
LINE
8
0
10
203.0496653
20
-121.3947576
11
185.8155296
21
-118.3559145
0
LINE
8
0
10
185.8155296
20
-118.3559145
11
182.9503347
21
-134.6052424
0
LINE
8
0
10
201.9560234
20
-139.7597879
11
218.4006442
21
-145.7451404
0
LINE
8
0
10
218.4006442
20
-145.7451404
11
224.0439766
21
-130.2402121
0
LINE
8
0
10
224.0439766
20
-130.2402121
11
207.5993558
21
-124.2548596
0
LINE
8
0
10
207.5993558
20
-124.2548596
11
201.9560234
21
-139.7597879
0
ENDSEC
0
EOF